# xmcd
#
# Track frame offsets:
#	150
#	10089
#	22420
#	39220
#
# Disc length: 693 seconds
#
# Revision: 0
# Processed by: cddbd v1.5.2PL0 Copyright (c) Steve Scherf et al.
# Submitted via: dBpowerAMP V4.0
#
DISCID=2602b304
DTITLE=Pekka Myllykoski ja Jyt‰jemmarit - Palamaton parta
DYEAR=2006
DGENRE=Country
TTITLE0=Kilisev‰t ukkelit
TTITLE1=Pukki
TTITLE2=Joulupakolaiset
TTITLE3=Kylm‰‰ joulua
EXTD=
EXTT0=
EXTT1=
EXTT2=
EXTT3=
PLAYORDER=
